HIERARCHY
ROOT Hips
{
    OFFSET 0.000000 0.000000 0.000000
    CHANNELS 6 Xposition Yposition Zposition Zrotation Xrotation Yrotation
    JOINT Spine
    {
        OFFSET -0.000000 7.236184 0.000000
        CHANNELS 3 Zrotation Xrotation Yrotation
        JOINT Spine1
        {
            OFFSET -0.000000 20.420147 0.000000
            CHANNELS 3 Zrotation Xrotation Yrotation
            JOINT Neck
            {
                OFFSET -0.000000 20.336288 1.848754
                CHANNELS 3 Zrotation Xrotation Yrotation
                JOINT Head
                {
                    OFFSET -0.000000 12.354461 -1.764923
                    CHANNELS 3 Zrotation Xrotation Yrotation
                    End Site
                    {
                        OFFSET -0.000000 22.061537 0.000000
                    }
                }
            }
            JOINT LeftShoulder
            {
                OFFSET 3.573296 18.396038 -0.314103
                CHANNELS 3 Zrotation Xrotation Yrotation
                JOINT LeftArm
                {
                    OFFSET 10.880760 0.000000 0.000000
                    CHANNELS 3 Zrotation Xrotation Yrotation
                    JOINT LeftForeArm
                    {
                        OFFSET 27.185530 0.000000 0.000000
                        CHANNELS 3 Zrotation Xrotation Yrotation
                        JOINT LeftHand
                        {
                            OFFSET 27.825975 0.000000 0.000000
                            CHANNELS 3 Zrotation Xrotation Yrotation
                            End Site
                            {
                                OFFSET 13.236923 0.000000 0.000000
                            }
                        }
                    }
                }
            }
            JOINT RightShoulder
            {
                OFFSET -3.474926 18.396038 -0.314103
                CHANNELS 3 Zrotation Xrotation Yrotation
                JOINT RightArm
                {
                    OFFSET -10.880760 0.000000 0.000000
                    CHANNELS 3 Zrotation Xrotation Yrotation
                    JOINT RightForeArm
                    {
                        OFFSET -27.185530 0.000000 0.000000
                        CHANNELS 3 Zrotation Xrotation Yrotation
                        JOINT RightHand
                        {
                            OFFSET -27.825975 0.000000 0.000000
                            CHANNELS 3 Zrotation Xrotation Yrotation
                            End Site
                            {
                                OFFSET -13.236923 0.000000 0.000000
                            }
                        }
                    }
                }
            }
        }
    }
    JOINT LeftUpLeg
    {
        OFFSET 8.824615 0.000000 0.000000
        CHANNELS 3 Zrotation Xrotation Yrotation
        JOINT LeftLeg
        {
            OFFSET -0.000000 -35.111282 0.000000
            CHANNELS 3 Zrotation Xrotation Yrotation
            JOINT LeftFoot
            {
                OFFSET -0.000000 -42.324711 0.000000
                CHANNELS 3 Zrotation Xrotation Yrotation
                JOINT LeftToeBase
                {
                    OFFSET -0.000000 -5.735999 13.236923
                    CHANNELS 3 Zrotation Xrotation Yrotation
                    End Site
                    {
                        OFFSET -0.000000 0.000000 3.529846
                    }
                }
            }
        }
    }
    JOINT RightUpLeg
    {
        OFFSET -8.824615 0.000000 0.000000
        CHANNELS 3 Zrotation Xrotation Yrotation
        JOINT RightLeg
        {
            OFFSET -0.000000 -35.111282 0.000000
            CHANNELS 3 Zrotation Xrotation Yrotation
            JOINT RightFoot
            {
                OFFSET -0.000000 -42.324711 0.000000
                CHANNELS 3 Zrotation Xrotation Yrotation
                JOINT RightToeBase
                {
                    OFFSET -0.000000 -5.735999 13.236923
                    CHANNELS 3 Zrotation Xrotation Yrotation
                    End Site
                    {
                        OFFSET -0.000000 0.000000 3.529846
                    }
                }
            }
        }
    }
}
MOTION
Frames:    4
Frame Time:    0.008333
-1.997216    82.234467    94.992256    1.515885    -7.742920    -171.601196    0.751844    -14.799788    1.084188    -4.431932    6.100379    1.222856    6.007214    5.718467    -6.671345    5.400311    -3.213252    -6.613694    2.342646    17.896587    -3.071373    -44.335819    45.820847    -40.686314    -2.466666    -1.736215    -16.579128    17.029827    -1.738281    2.386662    0.135665    10.522421    -4.919900    44.643978    -17.191261    23.800053    -56.711464    -43.053791    76.742455    -30.168114    5.900494    -5.112166    4.944383    -5.547517    -1.945684    -3.122289    5.319993    -3.987105    0.805672    -8.771022    -8.136167    -0.909863    2.109854    1.004794    -1.859787    -0.845799    -3.638367    12.130134    7.050158    -13.633856    0.000000    0.000000    0.000000    0.000000    0.000000    0.000000    
-1.995809    82.234039    94.994125    1.514092    -7.744452    -171.590302    0.748576    -14.799125    1.083462    -4.426141    6.092317    1.221954    6.001833    5.724570    -6.674425    5.404524    -3.202716    -6.615828    2.338002    17.900906    -3.069879    -44.336376    45.821152    -40.683281    -2.463902    -1.736606    -16.583693    17.034819    -1.737055    2.394939    0.134800    10.520865    -4.919106    44.632996    -17.172983    23.812450    -56.685204    -43.032234    76.741425    -30.170248    5.895305    -5.107985    4.942241    -5.556988    -1.950477    -3.121570    5.328647    -3.989696    0.799942    -8.774990    -8.141706    -0.910302    2.107988    1.005281    -1.861117    -0.848521    -3.649169    12.129972    7.053205    -13.633349    0.000000    0.000000    0.000000    0.000000    0.000000    0.000000    
-1.994412    82.233597    94.996002    1.512218    -7.746134    -171.579208    0.745219    -14.798475    1.082723    -4.420411    6.084062    1.221000    5.996358    5.730833    -6.677565    5.408976    -3.192097    -6.617959    2.333376    17.905176    -3.068360    -44.337193    45.821396    -40.679939    -2.461125    -1.736954    -16.588305    17.039648    -1.735760    2.403127    0.133997    10.519838    -4.918370    44.622288    -17.154781    23.825598    -56.658779    -43.010380    76.740135    -30.172611    5.889938    -5.103978    4.939996    -5.566682    -1.955497    -3.120822    5.337426    -3.992324    0.794075    -8.779001    -8.147200    -0.910745    2.106262    1.005774    -1.862587    -0.851350    -3.660158    12.129886    7.056276    -13.632767    0.000000    0.000000    0.000000    0.000000    0.000000    0.000000    
-1.993039    82.233139    94.997856    1.510260    -7.748045    -171.567871    0.741746    -14.797896    1.081970    -4.414800    6.075593    1.220071    5.990966    5.737110    -6.680748    5.413289    -3.181245    -6.620178    2.328629    17.909397    -3.066811    -44.337757    45.821884    -40.676559    -2.458298    -1.737377    -16.592983    17.044449    -1.734529    2.411442    0.133284    10.518636    -4.917564    44.611694    -17.136562    23.838821    -56.631969    -42.988335    76.738708    -30.174860    5.884150    -5.100153    4.937586    -5.576617    -1.960645    -3.120038    5.346202    -3.995358    0.788292    -8.782995    -8.152381    -0.911153    2.104694    1.006227    -1.864180    -0.854393    -3.671629    12.129761    7.059448    -13.632144    0.000000    0.000000    0.000000    0.000000    0.000000    0.000000    
